<?xml version="1.0" standalone="no"?>
<!DOCTYPE svg PUBLIC "-//W3C//DTD SVG 20010904//EN"
 "http://www.w3.org/TR/2001/REC-SVG-20010904/DTD/svg10.dtd">
<svg version="1.0" xmlns="http://www.w3.org/2000/svg"
 width="600.000000pt" height="600.000000pt" viewBox="0 0 600.000000 600.000000"
 preserveAspectRatio="xMidYMid meet">
<metadata>
Created by potrace 1.11, written by Peter Selinger 2001-2013
</metadata>
<g transform="translate(0.000000,600.000000) scale(0.100000,-0.100000)"
fill="#000000" stroke="none">
<path d="M1035 5519 c-363 -82 -620 -469 -566 -853 39 -277 242 -529 494 -613
72 -24 97 -27 212 -27 117 1 141 4 235 32 124 38 179 41 205 12 10 -11 26 -20
37 -20 17 0 18 13 18 216 0 244 -7 261 -50 123 -35 -114 -74 -182 -137 -239
-74 -67 -141 -91 -274 -98 -59 -2 -128 0 -157 7 -169 36 -269 148 -323 362
-30 118 -39 469 -15 616 26 169 63 257 142 343 175 189 529 165 668 -45 20
-29 50 -97 68 -149 17 -53 35 -96 40 -96 4 0 8 92 8 205 0 142 -3 205 -11 205
-6 0 -22 -9 -36 -20 -37 -29 -93 -25 -208 15 -91 32 -110 35 -205 34 -58 -1
-123 -5 -145 -10z"/>
<path d="M2627 4033 c-4 -3 -7 -11 -7 -17 0 -6 5 -5 12 2 6 6 9 14 7 17 -3 3
-9 2 -12 -2z"/>
<path d="M3299 3978 c9 -25 31 -36 31 -16 0 15 -19 38 -32 38 -4 0 -4 -10 1
-22z"/>
<path d="M3890 3989 c0 -5 5 -7 10 -4 6 3 10 8 10 11 0 2 -4 4 -10 4 -5 0 -10
-5 -10 -11z"/>
<path d="M3584 3915 c-4 -9 -2 -21 3 -26 7 -7 12 -3 16 10 6 25 -11 39 -19 16z"/>
<path d="M3700 3819 c-40 -36 -41 -39 -12 -22 18 10 40 28 48 40 19 31 16 29
-36 -18z"/>
<path d="M3620 3842 c0 -17 21 -25 31 -13 5 6 6 9 3 6 -4 -3 -13 0 -21 6 -9 8
-13 8 -13 1z"/>
<path d="M3358 3765 c2 -14 8 -27 12 -30 4 -2 5 7 2 20 -2 14 -8 27 -12 30 -4
2 -5 -7 -2 -20z"/>
<path d="M2875 3640 c-3 -6 1 -13 10 -16 13 -5 14 -9 4 -15 -19 -11 -7 -19 19
-12 22 5 31 23 12 23 -5 0 -10 7 -10 15 0 17 -25 20 -35 5z"/>
<path d="M3350 3595 c-7 -28 -16 -56 -18 -62 -2 -7 1 -13 8 -13 16 0 31 49 28
89 l-3 36 -15 -50z"/>
<path d="M2578 3363 c7 -3 16 -2 19 1 4 3 -2 6 -13 5 -11 0 -14 -3 -6 -6z"/>
<path d="M2675 3350 c3 -5 8 -10 11 -10 2 0 4 5 4 10 0 6 -5 10 -11 10 -5 0
-7 -4 -4 -10z"/>
<path d="M2770 3345 c-6 -8 -9 -19 -5 -25 4 -6 1 -9 -7 -8 -8 2 -14 -9 -16
-30 -2 -18 -7 -30 -12 -27 -11 7 -26 -43 -16 -52 3 -3 36 7 73 24 55 23 69 34
71 54 2 19 1 21 -7 9 -9 -13 -11 -13 -11 1 0 8 6 21 13 28 10 11 9 13 -6 7
-20 -6 -62 16 -50 27 3 4 2 7 -4 7 -6 0 -16 -7 -23 -15z m69 -78 c-2 -1 -13
-9 -24 -17 -19 -14 -19 -14 -6 3 7 9 18 17 24 17 6 0 8 -1 6 -3z"/>
<path d="M3026 3167 c-24 -35 -24 -39 -6 -22 24 22 44 54 38 61 -3 2 -17 -15
-32 -39z"/>
<path d="M2690 2653 c-8 -16 -16 -32 -19 -38 -3 -5 6 -3 19 6 14 9 26 26 28
38 5 30 -12 26 -28 -6z"/>
<path d="M2673 2603 c-7 -2 -13 -21 -13 -41 l1 -37 19 35 c27 49 26 57 -7 43z"/>
<path d="M2060 2575 c7 -9 15 -13 17 -11 7 7 -7 26 -19 26 -6 0 -6 -6 2 -15z"/>
<path d="M2346 2570 c-17 -6 -18 -7 -3 -13 9 -3 19 -2 23 4 9 15 2 18 -20 9z"/>
<path d="M3078 2517 c-21 -6 -38 -15 -38 -20 0 -5 8 -6 18 -2 9 3 29 9 45 12
15 3 27 9 27 14 0 10 -2 10 -52 -4z"/>
<path d="M2137 2503 c-4 -7 -3 -14 3 -18 6 -4 8 -11 5 -16 -3 -5 2 -6 11 -2
13 5 15 3 9 -7 -5 -8 -4 -11 3 -7 5 4 8 16 5 27 -3 11 -9 18 -13 15 -5 -3 -10
0 -12 7 -3 9 -6 9 -11 1z"/>
<path d="M3419 2458 c23 -11 68 -21 100 -23 l56 -4 -57 9 c-31 5 -73 16 -93
25 -54 22 -58 17 -6 -7z"/>
<path d="M3580 2439 c0 -5 5 -7 10 -4 6 3 10 8 10 11 0 2 -4 4 -10 4 -5 0 -10
-5 -10 -11z"/>
<path d="M3270 2415 c-7 -8 -16 -12 -21 -9 -5 3 -6 -2 -3 -11 4 -11 2 -14 -9
-9 -8 3 -18 0 -23 -7 -5 -9 -2 -10 9 -6 14 5 17 0 17 -22 0 -16 4 -31 9 -33 4
-1 12 -14 16 -27 5 -16 4 -21 -4 -17 -6 4 -11 12 -11 17 0 6 -7 17 -15 25 -27
28 -17 -9 11 -39 l26 -28 19 22 c10 12 19 18 19 13 0 -6 -5 -15 -12 -22 -9 -9
-8 -12 4 -12 20 0 25 7 32 43 5 27 -8 37 -18 15 -3 -7 -5 1 -4 17 1 17 -1 36
-5 43 -5 6 -5 17 -2 22 3 6 -3 10 -14 10 -12 0 -21 -7 -21 -15 0 -8 -5 -15
-10 -15 -7 0 -7 6 0 20 6 11 17 20 25 20 8 0 15 5 15 10 0 15 -16 12 -30 -5z"/>
<path d="M3409 2391 c13 -3 28 -15 32 -26 6 -17 8 -17 8 -2 1 9 7 17 14 18 22
1 -27 18 -53 17 l-25 0 24 -7z"/>
<path d="M3398 2358 c2 -10 8 -16 12 -13 4 2 5 -7 2 -21 -4 -24 -3 -25 16 -15
28 15 71 11 65 -6 -3 -8 3 -13 17 -13 20 0 21 2 9 17 -8 10 -9 14 -2 10 22
-13 25 14 4 34 -28 26 -61 25 -61 -2 0 -18 -2 -19 -15 -9 -8 7 -15 18 -15 26
0 7 -8 12 -19 11 -12 -1 -17 -7 -13 -19z"/>
<path d="M2516 2180 c-28 -34 -33 -50 -13 -50 12 0 52 69 44 77 -3 2 -16 -10
-31 -27z"/>
<path d="M2480 2106 c0 -23 16 -27 17 -5 1 10 -2 19 -8 19 -5 0 -9 -6 -9 -14z"/>
<path d="M2414 1947 c3 -10 6 -32 6 -48 0 -36 17 -38 26 -3 5 19 1 31 -16 47
-20 19 -22 19 -16 4z"/>
<path d="M4724 1878 c-15 -40 -139 -368 -274 -728 l-247 -655 -92 -3 c-50 -1
-91 -7 -91 -12 0 -6 86 -10 220 -10 140 0 220 4 220 10 0 6 -43 10 -110 10
-82 0 -110 3 -109 13 0 6 46 134 103 282 l102 270 238 0 239 0 103 -275 c57
-151 104 -278 104 -282 0 -4 -49 -8 -110 -8 -67 0 -110 -4 -110 -10 0 -6 110
-10 310 -10 200 0 310 4 310 10 0 6 -35 10 -84 10 -55 0 -87 4 -92 12 -4 7
-130 334 -280 728 -255 672 -273 715 -297 718 -22 3 -27 -4 -53 -70z m79 -510
l105 -278 -224 0 -224 0 11 28 c13 33 188 497 201 532 8 20 11 22 18 10 4 -8
55 -140 113 -292z"/>
</g>
</svg>
